<?xml version="1.0" encoding="iso-8859-1"?>
<!-- Generator: Adobe Illustrator 19.0.0, SVG Export Plug-In . SVG Version: 6.00 Build 0)  -->
<svg version="1.1" id="Capa_1" xmlns="http://www.w3.org/2000/svg" xmlns:xlink="http://www.w3.org/1999/xlink" x="0px" y="0px"
	 viewBox="0 0 512 512" style="enable-background:new 0 0 512 512;" xml:space="preserve">
<g>
	<g>
		<g>
			<path d="M480,176h-32v32h32v224H32V208h224v-32H32c-17.673,0-32,14.327-32,32v224c0,17.673,14.327,32,32,32h448
				c17.673,0,32-14.327,32-32V208C512,190.327,497.673,176,480,176z"/>
			<path d="M340.64,363.36c6.241,6.204,16.319,6.204,22.56,0l32-32c3.054-2.993,4.782-7.084,4.8-11.36V64c0-8.837-7.163-16-16-16
				h-64c-8.837,0-16,7.163-16,16v256c-0.025,4.253,1.645,8.34,4.64,11.36L340.64,363.36z M336,160h32v153.44l-16,16l-16-16V160z"/>
			<path d="M128,368h144v-32H96C96,353.673,110.327,368,128,368z"/>
			<path d="M256,304v-32h-96c0,17.673,14.327,32,32,32H256z"/>
		</g>
	</g>
</g>
<g>
</g>
<g>
</g>
<g>
</g>
<g>
</g>
<g>
</g>
<g>
</g>
<g>
</g>
<g>
</g>
<g>
</g>
<g>
</g>
<g>
</g>
<g>
</g>
<g>
</g>
<g>
</g>
<g>
</g>
</svg>
